<svg xmlns="http://www.w3.org/2000/svg" data-name="Layer 1" viewBox="0 0 100 125" x="0px" y="0px"><title>map pin place</title><path d="M50,5A23.83,23.83,0,0,0,26.17,28.83C26.17,49,50,71,50,71S73.83,49,73.83,28.83A23.83,23.83,0,0,0,50,5Zm0,34.65A10.82,10.82,0,1,1,60.82,28.83,10.83,10.83,0,0,1,50,39.65Z"/><path d="M63.41,63.73l0,0c8.07,1.75,13.51,5,13.51,8.79,0,5.61-12,10.15-26.89,10.15S23.11,78.17,23.11,72.56c0-3.76,5.44-7,13.51-8.79l0,0C18.29,65.76,5,71.82,5,79c0,8.84,20.15,16,45,16s45-7.16,45-16C95,71.82,81.71,65.76,63.41,63.73Z"/><text x="0" y="115" fill="#000000" font-size="5px" font-weight="bold" font-family="'Helvetica Neue', Helvetica, Arial-Unicode, Arial, Sans-serif">Created by Markus</text><text x="0" y="120" fill="#000000" font-size="5px" font-weight="bold" font-family="'Helvetica Neue', Helvetica, Arial-Unicode, Arial, Sans-serif">from the Noun Project</text></svg>