<svg xmlns="http://www.w3.org/2000/svg" xmlns:xlink="http://www.w3.org/1999/xlink" version="1.1" x="0px" y="0px" viewBox="0 0 512 640" style="enable-background:new 0 0 512 512;" xml:space="preserve"><g><g><path style="" d="M43.123,325.391c1.656-1.736,3.232-3.456,4.762-5.16l1.067-1.29    l0.621-0.732c4.713-5.591,8.488-10.05,12.469-14.35c3.935-4.252,8.076-8.377,13.554-13.347l0.398-0.509l-8.186-9.222    c-3.934,3.393-7.103,6.228-10.081,9.222c-3.313,3.329-6.418,6.864-10.146,11.657l-0.079,0.112    c-4.715,6.067-8.123,10.208-11.803,14.142c-2.833,3.011-5.812,5.894-9.698,9.397C31.687,325.502,37.93,325.646,43.123,325.391     M387.67,312.777l-1.99-3.982c-1.083-2.229-2.199-4.617-3.393-7.309c-0.668-1.498-3.266-6.498-5.605-10.448    c-1.387-2.325-2.549-4.173-2.883-4.364c-4.873-2.739-9.875-6.211-14.668-9.523l-4.507-3.09c-2.118-1.48-3.839-2.867-5.446-4.396    c-1.594-1.497-3.074-3.122-4.715-5.049c-1.545-1.847-3.154-3.552-4.747-5.255c-2.118-2.277-4.236-4.539-5.94-6.689l-0.891-1.115    c-4.842-5.893-9.668-10.064-15.051-14.699l-2.962-2.549c-3.79,3.01-7.216,5.001-10.448,6.896    c-5.717,3.313-10.894,6.322-16.644,14.508l-0.063,0.096c-1.497,2.135-2.818,3.807-3.966,5.256    c-2.579,3.266-4.188,5.288-6.067,11.197c0.589,0.827,1.258,1.847,1.96,2.978l0.016,0.017l0,0l0.016,0.031l0.11,0.176l0.065,0.095    l0.016,0.017l0.11,0.175l0.063,0.111l0.049,0.096l0.063,0.111l0.016,0.016h0.016l0.032,0.08l0.064,0.096l0.063,0.111l0.063,0.096    l0.063,0.111l0.065,0.111l0.063,0.096l0.063,0.111l0.064,0.096l0.063,0.111l0.063,0.111l0.064,0.112l0.11,0.19l0.478,0.78    l0.065-0.143l0.063-0.16l0.079-0.143l0,0l0.065-0.16l0,0l0.079-0.143l0.063-0.144l0.065-0.159l0,0l0.079-0.144l0,0l0.063-0.144    l0.065-0.143l0.063-0.144l0,0l0.063-0.144l0,0l0.081-0.144l0.063-0.144l0,0l0.063-0.143l0,0l0.065-0.144l0,0l0.063-0.144l0,0    l0.063-0.143l0.065-0.145l0,0l0.063-0.143l0,0l0.063-0.144l0,0l0.047-0.128l0,0l0.065-0.143l0.063-0.144l0,0l0.063-0.128l0,0    l0.065-0.143l0.047-0.144l0.063-0.128l0.063-0.143l0.049-0.128l0.063-0.144l0.047-0.143l0.128-0.271l0.048-0.127l0.063-0.127    v-0.017l0.049-0.127l0.047-0.128l0,0l0.063-0.143l0.048-0.128l0.049-0.128l0.063-0.143l0.047-0.127l0.048-0.128l0.112-0.271    l0.047-0.128l0.048-0.144l0.047-0.127l0.065-0.127l0.047-0.145l0.048-0.127l0.047-0.127l0.049-0.127l0.048-0.145l0.048-0.127    l0.047-0.127l0.049-0.128l0.048-0.144l0.047-0.127l0.048-0.128l0.049-0.127l0.032-0.144l0.047-0.127l0.063-0.176l0.064-0.175    l0.048-0.176l0.063-0.159v-0.016l0.048-0.159l0.064-0.175v-0.017l0.048-0.159v-0.016l0.063-0.159v-0.017l0.047-0.158v-0.017    l0.065-0.159v-0.016l0.047-0.16l0.063-0.19l0.047-0.175l0,0l0.05-0.176l0,0l0.063-0.176l0.048-0.174l0.047-0.191l0,0l0.05-0.176    l0,0l0.063-0.175l0.048-0.191l0,0l0.047-0.175l0.05-0.191l0.047-0.175v-0.017l0.048-0.175l0.063-0.175v-0.017l0.05-0.175v-0.016    l0.047-0.176v-0.016l0.048-0.176v-0.016l0.047-0.175l0,0l0.05-0.191l0.047-0.19l0,0l0.048-0.191l0.047-0.191v-0.016l0.048-0.176    v-0.016l0.033-0.176l0.016-0.016l0.031-0.191v-0.016l0.048-0.175v-0.017l0.047-0.19v-0.017l0.05-0.175v-0.016l0.047-0.191v-0.016    l0.048-0.191v-0.016l0.047-0.176v-0.031l0.032-0.176v-0.031l0.049-0.176v-0.031l0.047-0.176v-0.031l0.048-0.191l0.047-0.207    v-0.016l0.304-1.497v-0.032l0.048-0.19v-0.033l0.031-0.206l0.016-0.017l0.032-0.207v-0.031l0.049-0.191v-0.031l0.031-0.207    l0.048-0.224l0.047-0.238v-0.032l0.048-0.207v-0.031l0.033-0.207l0.048-0.24l0.016-0.031v-0.031v-0.017v-0.016l0.016-0.017v-0.031    v-0.031l0.016-0.033l0,0v-0.016l0,0l0.016-0.031v-0.031l0.016-0.033l0,0l0.017-0.016v-0.031l0.016-0.032v-0.017v-0.016    l0.016-0.016l0.016-0.031l0.018-0.032l0.016-0.017v-0.016v-0.016l0.016-0.031l0.017-0.017l0.016-0.032l0.016-0.016l0.016-0.031    l0.016-0.033l0.016-0.016l0.017-0.031l0.016-0.016l0.016-0.032l0.016-0.017V256l0.016-0.016l0.018-0.031l0.048-0.033l0.031-0.047    l0,0l0.031-0.031l0.032-0.033l0.031-0.031v-0.016l0.033-0.016v-0.016l0.032-0.033l0.031-0.031h0.016l0,0l0.031-0.031l0.079-0.049    l0.033-0.031l0.048-0.032l0.031-0.017l0,0l0.079-0.047l0.049-0.031l0.048-0.017l0.031-0.017l0.048-0.031h0.031l0.016-0.016    l0.034-0.016l0,0l0.047-0.017l0,0l0.048-0.017l0,0l0.047-0.016h0.031h0.018l0.048-0.016l0.031-0.016l0,0h0.048l0,0l0.047-0.016    l0,0h0.05l0,0l0.047-0.016l0,0h0.048l0,0h0.047l0.048-0.017h0.049l0,0h0.047l0,0h0.048l0,0h0.048l0,0l0.049,0.017l0,0h0.031h0.048    h0.016h0.031l0.032,0.016h0.016h0.033h0.016h0.016l0.016,0.016h0.017l0.047,0.016l0,0h0.031h0.017l0.016,0.016h0.033l0.047,0.016    l0,0l0.032,0.017l0,0l0.031,0.017h0.016h0.016l0.017,0.016h0.016l0.018,0.016h0.031l0,0l0.048,0.031l0,0l0.031,0.017l0,0    l0.031,0.017l0,0h0.016l0,0l0.032,0.016l0.018,0.016l0,0l0.031,0.016l0,0l0.016,0.016l0.032,0.016l0,0h0.016v0.017l0.031,0.017    l0,0l0.031,0.016l0,0l0.017,0.016l0.016,0.016h0.018l0.016,0.016l0.016,0.017l2.787,2.166v0.016l0.397,0.303l0,0l0.398,0.318l0,0    l0.398,0.303l0,0l0.383,0.303l0,0l0.381,0.302l0,0l0.383,0.287l0,0l0.366,0.303l0,0l0.367,0.287l0,0l0.364,0.287l0,0l0.352,0.27    v0.017l0.351,0.271l0.35,0.287l0,0l0.351,0.271l0,0l0.335,0.271l0,0l0.334,0.271l0,0l0.335,0.27l0,0l0.333,0.271l0,0l0.319,0.271    L301,263.23l0.318,0.271l0.319,0.271l0,0l0.317,0.255v0.016l0.304,0.255l0,0l0.317,0.271l0.304,0.271l0,0l0.302,0.271l0.302,0.271    l0.304,0.271l0.286,0.271l0.304,0.271l0.302,0.287l0.285,0.27l0.288,0.287l0.302,0.287l0.288,0.287l0.286,0.285l0.286,0.287    l0.304,0.303l0.286,0.303l0.287,0.303l0.286,0.318l0,0l0.286,0.303h0.016l0.288,0.318l0.286,0.334l0.286,0.318l0.304,0.336    l0.285,0.334l0.305,0.35l0.301,0.352l0,0l0.288,0.35l0,0l0.302,0.366l0.302,0.366l0.304,0.383l0.318,0.382l0.303,0.397    l0.318,0.398l0.303,0.398l0.637,0.844l0.334,0.431l0.319,0.43l0.335,0.462l0.334,0.446l0.335,0.478l0.255,0.35l0.254,0.336    l0.254,0.35l0,0l0.257,0.334l0,0l0.238,0.335l0,0l0.255,0.335l0.238,0.318l0.254,0.334l0,0l0.241,0.318l0.255,0.303l0.238,0.318    l0,0l0.238,0.318l0,0l0.238,0.303h0.016l0.239,0.303l0.24,0.303l0.239,0.303l0.238,0.287l0,0l0.238,0.286l0.191,0.239l0.047,0.063    l0,0l0.239,0.286l0.239,0.287l0.24,0.271v0.017l0.238,0.271l0,0l0.238,0.271l0.238,0.287l0,0l0.239,0.27l0.239,0.271l0.238,0.271    l0.223,0.27l0.24,0.271l0.238,0.255l0.239,0.271l0.239,0.255l0.238,0.271l0.238,0.255l0,0l0.031,0.032l0.207,0.223l0.24,0.255    v0.017l0.239,0.238l0.239,0.254l0.223,0.256l0.238,0.254l0.238,0.256l0.238,0.254l0.257,0.256l0,0l0.239,0.238l0.238,0.255v0.017    l0.238,0.238l0.238,0.255l0.239,0.239l0.016,0.016l0.239,0.238l0.24,0.256l0.238,0.238l0.254,0.255l0.239,0.255l0.255,0.255    l0.238,0.255l0.256,0.238l0.254,0.256l0.748,0.764l0.256,0.255l0.255,0.255l0.255,0.271l0.096,0.08l0.096,0.096l0.016,0.016    l0.078,0.079l0.081,0.096l0.017,0.017l0.078,0.079h0.016l0.081,0.08l0.095,0.096l0.097,0.096l0.079,0.096l0.096,0.095l0.096,0.096    h0.016l0.078,0.096l0.098,0.095l0,0l0.094,0.096l0,0l0.097,0.08l0.079,0.096l0.016,0.016l0.081,0.08l0.095,0.096l0.016,0.016    l0.081,0.08l0.016,0.016l0.079,0.08l0.095,0.096v0.016l0.097,0.08l0.095,0.095v0.017l0.097,0.079l0.094,0.095l0.098,0.112l0,0    l0.094,0.095l0,0l0.097,0.096l0,0l0.095,0.096l0,0l0.097,0.096l0,0l0.095,0.096l0.095,0.096l0.097,0.111l0,0l0.095,0.096h0.016    l0.081,0.096h0.016l0.095,0.096l0,0l0.097,0.096v0.016l0.095,0.096l0,0l0.097,0.096l0,0l0.095,0.095v0.017l0.097,0.096l0,0    l0.094,0.095h0.017l0.097,0.096v0.017l0.094,0.096l0.098,0.095l0,0l0.094,0.096v0.017l0.096,0.095h0.018l0.094,0.096v0.017    l0.096,0.096l0,0l0.096,0.095l0,0l0.111,0.112l0,0l0.096,0.095v0.017l0.096,0.096l0,0l0.111,0.095v0.017l0.096,0.096l0,0    l0.096,0.096l0.111,0.111l0,0l0.096,0.111l0,0l0.096,0.111l0,0l0.111,0.096l0.096,0.111l0.111,0.111l0.096,0.096l0.111,0.111    l0.063,0.08l0.079,0.079l0.08,0.079v0.017l0.08,0.063l0.08,0.08l0.063,0.096h0.016l0.063,0.079l0.08,0.079l0.079,0.08l0.017,0.016    l0.047,0.064l0.08,0.079l0.08,0.08l0.016,0.031l0.047,0.048l0.081,0.08l0.079,0.079l0.031,0.032l0.031,0.048l0.081,0.079    l0.079,0.08l0.031,0.048l0.033,0.048l0.079,0.079l0.079,0.08l0.031,0.048l0.033,0.031l0.08,0.08l0.063,0.08l0.145,0.158    l0.078,0.08l0.065,0.08l0.079,0.079l0.063,0.079l0.065,0.064l0.016,0.031l0.063,0.08l0.078,0.08l0.05,0.063l0.016,0.018    l0.142,0.158l0.065,0.064v0.016l0.142,0.159l0.065,0.079h0.016l0.063,0.08l0.063,0.096l0.081,0.08l0.063,0.079l0.063,0.079    l0.082,0.08l0,0l0.063,0.08l0.063,0.079l0.065,0.079l0.017,0.017l0.063,0.063l0.063,0.08l0.065,0.079l0.063,0.096l0.079,0.08    l0.064,0.079l0.063,0.08l0.063,0.079l0.065,0.08l0.079,0.079l0.063,0.08l0.129,0.159l0.063,0.096l0.063,0.079l0.034,0.017    l0.031,0.048l0.063,0.063l0.048,0.079l0.049,0.064h0.017l0,0l0.094,0.127v0.016l0.063,0.048v0.017l0.05,0.063v0.016l0.047,0.048    l0.016,0.016l0.047,0.049v0.016l0.048,0.047l0.016,0.032l0.034,0.048l0.016,0.016l0.047,0.049l0.016,0.016l0.031,0.047    l0.017,0.032l0.031,0.032l0.05,0.063l0.031,0.048l0.031,0.031l0.031,0.032l0.016,0.032l0.032,0.031l0.016,0.032l0.032,0.048    l0.033,0.016l0.031,0.049l0.016,0.016l0.047,0.063l0.048,0.064l0.159,0.207l0,0c0.717,0.924,1.387,1.831,2.071,2.756l2.978,0.381    h0.063l0.065,0.017l0,0h0.063l0.063,0.017h0.065l0.063,0.016h0.063l0.065,0.016h0.063h0.016h0.063l0,0l0.065,0.016l0,0h0.063l0,0    l0.063,0.016l0,0h0.065l0,0l0.063,0.016l0,0h0.063l0,0h0.063l0,0l0.065,0.018h0.016h0.063l0,0l0.063,0.016l0,0h0.065l0,0h0.063    l0,0l0.063,0.016l0,0h0.065h0.016l0.047,0.016h0.016h0.063l0,0h0.065l0,0l0.063,0.016l0,0h0.063h0.016h0.05h0.016l0.063,0.016l0,0    h0.063l0,0l0.065,0.017l0,0h0.063h0.016h0.048h0.016l0.065,0.017l0,0h0.063h0.016h0.048h0.016l0.065,0.016l0,0h0.063l0,0h0.063    h0.016l0.048,0.016h0.016h0.064l0,0l0.063,0.016h0.016h0.048h0.016h0.049h0.016l0.063,0.016h0.016h0.048h0.016h0.064l0,0    l0.063,0.016h0.016h0.048h0.016h0.049h0.016h0.063h0.016l0.048,0.018h0.016h0.064l0,0h0.063h0.016l0.048,0.016h0.016h0.064h0.016    h0.048h0.016h0.048h0.016l0.064,0.016h0.016h0.048h0.016h0.063h0.016l0.049,0.016h0.016h0.032h0.048h0.063h0.018    c1.193,0.048,5.893,0.08,12.629,0.096h0.828h1.035h1.067h1.099h16.148h1.355h1.353H387.67z M336.675,308.334l-0.063-0.064    l-0.064-0.079l-0.063-0.079l-0.063-0.08h-0.016l-0.064-0.08l-0.063-0.079l-0.063-0.063l-0.016-0.016l-0.049-0.064l-0.063-0.079    l-0.079-0.08l-0.016-0.016l-0.049-0.063l-0.127-0.144l-0.031-0.032l-0.049-0.048l-0.063-0.079l-0.063-0.08l-0.063-0.079    l-0.081-0.08l-0.063-0.079l-0.031-0.032l-0.049-0.048l-0.063-0.08l-0.063-0.063l-0.047-0.048l-0.033-0.031l-0.063-0.08    l-0.079-0.08l-0.031-0.047l-0.033-0.032l-0.063-0.079l-0.079-0.08l-0.064-0.08l-0.079-0.063l-0.063-0.079l-0.064-0.064    l-0.016-0.016l-0.064-0.08l-0.078-0.079l-0.064-0.079l-0.08-0.08l-0.078-0.08l-0.065-0.079l-0.079-0.063l-0.078-0.08l-0.065-0.08    l0,0l-0.079-0.079l-0.063-0.079l-0.081-0.08l-0.11-0.111l-0.098-0.111l-0.109-0.096l-0.098-0.111l-0.094-0.111l-0.113-0.096    l-0.094-0.111l-0.097-0.112l-0.11-0.095l0,0l-0.097-0.112l-0.095-0.095l-0.112-0.112l-0.095-0.096l-0.097-0.111l0,0l-0.11-0.096    l0,0l-0.097-0.111l-0.095-0.096l-0.095-0.111l-0.097-0.095h-0.016l-0.095-0.096l-0.097-0.111l-0.095-0.096l-0.097-0.096    l-0.095-0.096l-0.097-0.111l-0.11-0.096l-0.097-0.096l-0.078-0.096h-0.017l-0.097-0.111l-0.078-0.08l-0.016-0.016l-0.098-0.096    l-0.078-0.096h-0.016l-0.08-0.096h-0.016l-0.08-0.096h-0.016l-0.08-0.096h-0.016l-0.08-0.095h-0.016l-0.079-0.096h-0.017    l-0.08-0.095l0,0l-0.095-0.096l0,0l-0.191-0.191l0,0l-0.095-0.096l0,0l-0.096-0.096l0,0l-0.08-0.08l-0.016-0.016l-0.08-0.08    l-0.016-0.016l-0.08-0.079l-0.016-0.017l-0.08-0.079v-0.017l-0.096-0.079l-0.08-0.096h-0.016l-0.079-0.096h-0.016l-0.079-0.079    v-0.016l-0.097-0.08v-0.016l-0.079-0.08l-0.016-0.016l-0.08-0.08h-0.016l-0.08-0.079v-0.017l-0.08-0.079l-0.016-0.016l-0.079-0.08    l-0.017-0.016l-0.078-0.08l0,0l-0.097-0.079v-0.017l-0.079-0.079l-0.016-0.016l-0.081-0.096l-0.095-0.08l-0.08-0.08l-0.016-0.016    l-0.08-0.079v-0.017l-0.254-0.238l-0.016-0.016l-0.256-0.256v-0.016l-0.271-0.254l-0.255-0.256l-0.254-0.271l-0.256-0.255    l-0.255-0.255l-0.239-0.255h-0.016l-0.238-0.255h-0.016l-0.255-0.255l-0.223-0.254h-0.018l0,0l-0.255-0.255v-0.017l-0.254-0.255    l0,0l-0.238-0.255l-0.239-0.223v-0.016l-0.016-0.016h-0.016l-0.241-0.256l-0.238-0.238v-0.016l-0.238-0.239l-0.016-0.017    l-0.238-0.238v-0.016l-0.239-0.239v-0.017l-0.239-0.254h-0.016l-0.24-0.255l0,0l-0.238-0.255h-0.016l-0.223-0.255l-0.016-0.016    l-0.239-0.255l-0.239-0.255l-0.238-0.255l-0.016-0.016l-0.24-0.255l-0.238-0.271l-0.239-0.271l-0.239-0.254h-0.016l-0.238-0.271    l-0.238-0.271l0,0l-0.238-0.27l0,0l-0.241-0.271h-0.016l-0.239-0.287l-0.238-0.27l-0.238-0.271v-0.016l-0.238-0.271h-0.016    l-0.239-0.287l-0.24-0.286l-0.255-0.287l-0.238-0.287v-0.016l-0.238-0.287l-0.255-0.286l-0.239-0.302l-0.256-0.303l0,0    l-0.238-0.303l-0.254-0.318l-0.255-0.303l-0.239-0.319l-0.256-0.318l-0.254-0.318l-0.255-0.318l-0.239-0.335l-0.254-0.318    l-0.256-0.334l-0.255-0.334v-0.018l-0.255-0.334l0,0l-0.27-0.35l-0.256-0.351l0,0l-0.255-0.351l-0.271-0.351l-0.254-0.366    l-0.319-0.445l-0.317-0.446l-0.32-0.431l0,0l-0.316-0.414l-0.305-0.414l0,0l-0.317-0.397l0,0l-0.304-0.398l0,0l-0.301-0.382    l-0.289-0.383l-0.301-0.382l0,0l-0.287-0.366l-0.303-0.351l0,0l-0.286-0.366l-0.574-0.686l0,0l-0.286-0.334l-0.287-0.334    l-0.271-0.318l0,0l-0.286-0.319l0,0l-0.844-0.923l0,0l-0.272-0.303l-0.286-0.303l-0.27-0.287h-0.017l-0.271-0.287l-0.271-0.286    h-0.016l-0.271-0.286l0,0l-0.271-0.271h-0.016l-0.271-0.286l-0.286-0.271l0,0l-0.272-0.271h-0.016l-0.27-0.271l-0.286-0.271    l-0.288-0.255l-0.286-0.271l-0.288-0.256l0,0l-0.302-0.27l-0.286-0.256l-0.287-0.254l-0.302-0.256l-0.304-0.27l-0.302-0.256l0,0    l-0.304-0.254l-0.317-0.256l-0.302-0.254l-0.319-0.271l0,0l-0.319-0.255l-0.318-0.271l0,0l-0.319-0.255l-0.333-0.271l-0.335-0.271    l-0.334-0.255l-0.335-0.271l-0.351-0.286l-0.35-0.271l-0.351-0.287l-0.367-0.271l-0.365-0.286l-0.366-0.287l-0.367-0.303    l-0.382-0.287l-0.383-0.302l-0.398-0.303l-0.254-0.207l-0.048,0.175l-0.031,0.176l-0.032,0.19l-0.031,0.176l-0.049,0.175    l-0.032,0.175l-0.031,0.176l-0.048,0.175l-0.031,0.176l-0.031,0.158l-0.05,0.176l-0.031,0.176l-0.031,0.158l-0.048,0.176    l-0.031,0.176l-0.049,0.158l-0.032,0.16l-0.031,0.175l-0.048,0.159l-0.031,0.159l-0.049,0.175l-0.032,0.16l-0.047,0.158    l-0.031,0.16l-0.032,0.159l-0.047,0.159l-0.033,0.159l-0.048,0.159l-0.031,0.159l-0.048,0.144l-0.031,0.159l-0.049,0.159    l-0.048,0.159l-0.031,0.144l-0.048,0.159l-0.031,0.159l-0.05,0.143l-0.047,0.16l-0.031,0.143l-0.048,0.16l-0.047,0.143    l-0.034,0.16l-0.047,0.143l-0.048,0.145l-0.031,0.158l-0.047,0.144l-0.05,0.144l-0.047,0.159l-0.032,0.144l-0.047,0.143    l-0.048,0.144l-0.049,0.159l-0.047,0.144l-0.048,0.144l-0.048,0.144l-0.033,0.144l-0.047,0.143l-0.048,0.144l-0.047,0.144    l-0.048,0.159l-0.049,0.144l-0.063,0.143l-0.047,0.145l-0.048,0.143l-0.049,0.159l-0.063,0.175l-0.063,0.176l-0.05,0.159    l-0.063,0.175l-0.063,0.176l-0.063,0.159l-0.064,0.175l-0.063,0.176l-0.063,0.159l-0.064,0.175l-0.063,0.159l-0.063,0.176    l-0.064,0.175l-0.063,0.159l0,0l-0.063,0.175l-0.063,0.176l-0.065,0.159l-0.078,0.175l-0.063,0.176l-0.065,0.175l-0.078,0.159    l-0.063,0.176l-0.081,0.175L287.256,275l-0.079,0.176l-0.065,0.175l-0.079,0.159l0,0l-0.063,0.176l0,0l-0.081,0.175l-0.079,0.175    l0,0l-0.081,0.176v0.016l0,0l-0.078,0.159v0.017l-0.063,0.175l0,0l0,0l-0.081,0.175l0,0l-0.079,0.176l0,0l-0.078,0.175    l-0.081,0.191l-0.079,0.175l0,0l-0.081,0.176l0,0l-0.095,0.19l0,0l0,0l-0.078,0.175l0,0l0,0l-0.081,0.191l0,0l-0.079,0.176l0,0    l-0.097,0.191l0,0l-0.079,0.191l0,0l-0.095,0.174v0.016l-0.08,0.176l0,0l-0.095,0.191l0,0l-0.081,0.191l0,0l0,0l-0.095,0.191l0,0    l0,0l-0.097,0.19l0,0l0,0l-0.079,0.191l0,0h-0.016l-0.079,0.19v0.017l0,0l-0.097,0.19l0,0l0,0l-0.095,0.191l0,0l0,0l-0.097,0.191    v0.016l0,0l-0.095,0.191l0,0l0,0l-0.096,0.207l0,0l0,0l-0.095,0.191l0,0h-0.017l-0.096,0.207l0,0l0,0l-0.095,0.207l0,0l0,0    l-0.097,0.207l0,0l0,0l-0.095,0.207l0,0l0.031,0.063l0.031,0.064l0.048,0.064l0,0l0.033,0.063v0.016l0.016,0.033l0.286,0.477    v0.017c0.637,1.131,1.227,2.245,1.801,3.345l0.859,1.688v0.017c0.541,1.083,1.051,2.149,1.561,3.265l0.063,0.127v0.017    l0.033,0.048v0.016l0.017,0.048l0.016,0.032l0.016,0.031l0.031,0.048l0.016,0.063l0.032,0.048l0.016,0.048l0.031,0.063l0,0    l0.018,0.032l0,0v0.016l0,0l0.048,0.096l0.016,0.048l0.286,0.621c2.66,5.973,5.287,11.388,8.027,16.723    c2.501,4.89,5.191,9.874,8.155,15.273l15.16-0.096c9.316-0.063,18.619-0.128,28-0.048l-3.027-4.348    c-1.242-1.815-2.484-3.631-3.759-5.415h-0.016v-0.016l-0.017-0.017l-0.016-0.031l-0.047-0.048v-0.016l-0.238-0.319l-0.05-0.079    h-0.016l-0.079-0.111l-0.016-0.032l-0.047-0.08h-0.016l-0.05-0.079l-0.016-0.016l-0.048-0.063l-0.031-0.049l-0.016-0.031    l-0.063-0.064v-0.016l-0.112-0.143l-0.031-0.064l-0.031-0.016l-0.05-0.08l0,0l-0.063-0.079l-0.047-0.079l-0.063-0.064    l-0.016-0.016l-0.207-0.303l-0.065-0.08l-0.063-0.079l-0.047-0.079l-0.065-0.064l-0.063-0.08l-0.016-0.031l-0.031-0.048    l-0.063-0.079l-0.065-0.08l-0.047-0.08l-0.063-0.079l-0.065-0.063l-0.239-0.318l-0.047-0.08l-0.063-0.08l-0.047-0.047    l-0.018-0.032l-0.063-0.063l-0.047-0.08l-0.063-0.063v-0.017l-0.065-0.079L339,311.201l-0.063-0.08l-0.05-0.08l-0.063-0.079    l-0.063-0.063l-0.064-0.08l-0.064-0.08l-0.063-0.079l0,0l-0.176-0.239h-0.016l-0.048-0.079l-0.128-0.144l-0.016-0.016    l-0.669-0.828v-0.016l-0.031-0.016l-0.017-0.033l-0.016-0.016l-0.016-0.016l-0.049-0.064l0,0l-0.016-0.016l-0.031-0.031    l-0.048-0.064l-0.016-0.031l-0.017-0.016h-0.016l-0.016-0.032l-0.033-0.032v-0.016l-0.016-0.016l-0.031-0.032l-0.048-0.048    l-0.016-0.031l-0.016-0.016l-0.017-0.018l-0.016-0.016l-0.031-0.031v-0.016l-0.018-0.016l-0.031-0.033l-0.016-0.031l0,0    l-0.032-0.016l-0.016-0.032l-0.016-0.032h-0.017l-0.016-0.031l-0.031-0.031l-0.016-0.017v-0.017l-0.033-0.016l-0.016-0.031    l-0.016-0.016l-0.016-0.017l-0.017-0.032L336.675,308.334z M262.203,266.146c-3.041-2.038-6.194-4.205-9.285-6.339l-0.063-0.047    l-0.097-0.064l-0.063-0.048l-0.097-0.063l-0.063-0.049l-1.179-0.812l-5.112-3.52l-0.812-0.573h-0.016l-0.095-0.08l-0.033-0.016    l-0.032-0.016l-0.317-0.224l-0.047-0.048l0,0l-0.049-0.031l-0.11-0.08l-0.047-0.048l-0.272-0.19l-0.047-0.032l0,0l-1.195-0.907    l-0.063-0.032v-0.017l-0.254-0.19l-0.75-0.604l-0.047-0.033l-0.016-0.016l-0.351-0.287l-0.032-0.016l-0.144-0.127l-0.047-0.031    v-0.017l-0.047-0.032l-0.079-0.063l0,0l-0.049-0.048l-0.047-0.031h-0.016l-0.032-0.049l-0.047-0.031l-0.031-0.031l-0.018-0.017    l-0.047-0.032l-0.047-0.031l-0.047-0.048l-0.047-0.032l-0.018-0.016l-0.016-0.031l-0.047-0.033l-0.047-0.031v-0.016l-0.047-0.032    l-0.049-0.032l-0.016-0.016l-0.031-0.031l-0.032-0.032l-0.047-0.032v-0.016l-0.047-0.031l-0.049-0.049l-0.016-0.016l-0.032-0.016    l-0.032-0.032l-0.047-0.031v-0.017l-0.047-0.031l-0.049-0.048l-0.016-0.017l-0.016-0.016l-0.047-0.031l-0.097-0.08l-0.031-0.031    l-0.032-0.032l-0.016-0.017l-0.047-0.031l-0.032-0.048l-0.047-0.032l-0.033-0.031l-0.032-0.032h-0.016l-1.162-1.083    c-2.23-2.102-4.301-4.363-6.595-7.087c-2.181-2.564-4.475-5.017-6.752-7.454c-3.059-3.265-6.084-6.481-8.458-9.508l-1.162-1.48    c-6.896-8.409-13.777-14.334-21.389-20.896l-4.731-4.093c-4.283,3.455-8.233,5.972-11.976,8.201l-0.032,0.033l-0.031,0.016    l-0.065,0.031l-0.223,0.144l-0.223,0.128l-2.469,1.433l-0.191,0.128h-0.016l-0.27,0.159l-0.126,0.063l-0.16,0.096l-0.207,0.127    l-0.065,0.048l-0.286,0.159l-0.031,0.016l-0.239,0.145l-0.144,0.079l-0.144,0.079l-0.239,0.145l-0.032,0.016l-0.27,0.175    l-0.081,0.032l-0.207,0.127l-0.158,0.096l-0.112,0.064l-0.271,0.158l0,0l-0.286,0.176l-0.097,0.047l-0.175,0.111l-0.191,0.128    l-0.079,0.032l-0.27,0.175l-0.033,0.017l-0.239,0.143l-0.126,0.08l-0.382,0.223l-0.032,0.032l-0.288,0.175l-0.048,0.032    l-0.223,0.144l-0.144,0.095l-0.126,0.063l-0.254,0.16l-0.016,0.016l-0.272,0.175l-0.079,0.048l-0.191,0.128l-0.176,0.111    l-0.095,0.063L167.187,213h-0.016l-0.254,0.175l-0.11,0.079l-0.16,0.111l-0.207,0.128l-0.063,0.048l-0.272,0.176l-0.047,0.031    l-0.223,0.159l-0.144,0.095l-0.126,0.096l-0.238,0.16l-0.034,0.031l-0.254,0.191l-0.079,0.049l-0.191,0.143l-0.175,0.127    l-0.367,0.256l0,0l-0.27,0.207l-0.095,0.079l-0.367,0.271l-0.065,0.048l-0.271,0.207l-0.031,0.032l-0.367,0.286l-0.142,0.111    c-3.982,3.17-7.981,7.247-12.217,13.282c-2.166,3.09-3.997,5.416-5.573,7.406c-3.695,4.666-6.004,7.58-8.696,16.006    c0.016,0.238,0,0.494-0.079,0.717l-1.179,4.014c-0.988,3.344-2.262,7.692-3.727,12.279c-2.037,6.769-4.952,15.527-8.663,21.373    c-1.337,2.245-2.676,3.934-3.998,4.809c-2.883,1.863-5.368,3.313-7.677,4.635l-1.497,0.877c-5.766,3.535-9.045,5.893-13.043,9.73    l-0.511,0.51c-2.676,2.675-5.35,5.59-7.995,8.473l-2.516,2.723l-1.465,1.561l5.415-0.078c7.835-0.096,14.238,1.353,20.481,2.771    c6.673,1.513,13.171,2.994,20.975,2.341l22.122-24.017l-3.457-12.454c-0.191-0.558-0.128-1.194,0.238-1.721l11.069-16.244    c0.335-2.898,2.086-18.984,1.083-26.66c-1.321-10.225,28.316-22.424,28.413-22.473c0.988-0.414,2.134,0.049,2.548,1.035    c0.43,0.988-0.032,2.15-1.02,2.564c-0.079,0.031-26.995,11.213-26.07,18.379c1.177,8.951-1.116,28.046-1.132,28.094    c-0.032,0.351-0.176,0.685-0.381,0.956l-10.783,15.798l3.551,12.742c0.176,0.668-0.016,1.354-0.446,1.831l-19.637,21.325    c5.287-0.924,10.576-2.229,15.895-3.52c5.096-1.242,10.241-2.501,15.465-3.456l1.512-0.271    c14.524-2.517,21.056-1.051,28.762,0.685c4.317,0.972,9.047,2.038,15.895,2.468c2.708,0.16,42.03,0.096,69.455,0.049l17.185-0.032    c-5.018-9.11-9.651-17.519-13.95-27.394c-0.559-1.306-1.101-2.531-1.625-3.711h-0.016l0,0l-0.017-0.047v-0.016l-0.033-0.064    c-0.477-0.987-1.177-2.389-2.021-4.014l-0.031-0.047l-0.495-0.924l-0.031-0.08l-0.144-0.271l-0.017-0.032l-0.063-0.096    l-0.286-0.557l-0.065-0.128h-0.016l-0.063-0.144l-0.238-0.43v-0.016l-0.081-0.128l-0.031-0.063l-0.031-0.08l-0.079-0.127v-0.016    l-0.081-0.145l-0.031-0.047l-0.048-0.096l-0.063-0.111l-0.017-0.016l-0.031-0.064l-0.893-1.641l-0.063-0.111l-0.031-0.048    l-0.048-0.079l-0.097-0.176l-0.031-0.079l-0.112-0.191l-0.032-0.048l0,0l-0.11-0.207l0,0l-0.016-0.031l-0.128-0.223l-0.016-0.033    l-0.128-0.223l-0.017-0.016l-0.126-0.238l0,0l-0.031-0.064l-0.112-0.191v-0.016l0,0l-0.145-0.223l-0.016-0.031l-0.11-0.207    l-0.031-0.049l-0.112-0.191l-0.032-0.063l-0.112-0.176l-0.031-0.08l-0.095-0.158l-0.048-0.08l-0.096-0.159l-0.048-0.096    l-0.047-0.08l-0.05-0.063l-0.047-0.111l-0.079-0.127l-0.065-0.112v-0.016l-0.078-0.111v-0.016l-0.063-0.112l-0.065-0.111    l-0.079-0.127l-0.063-0.096l-0.081-0.144l-0.063-0.095l-0.078-0.145l0,0l-0.017-0.016l-0.064-0.127l-0.016-0.031l-0.048-0.064    l-0.016-0.048l-0.031-0.032l-0.048-0.08l-0.018-0.016l-0.031-0.063l-0.031-0.064h-0.017l-0.047-0.096l-0.031-0.047l0,0    l-0.065-0.096l-0.016-0.033l-0.016-0.031l-0.048-0.096h-0.016l-0.016-0.047l-0.063-0.096l0,0l-0.033-0.049l-0.047-0.079    l-0.017-0.032l-0.016-0.031c-1.066-1.736-2.055-3.232-2.834-4.236c-0.097-0.111-0.159-0.239-0.225-0.366l-0.031-0.017    l-0.016-0.031l-0.032-0.016l-0.016-0.032l-0.016-0.032l-0.031-0.016l-0.016-0.016l-0.017-0.032l-0.016-0.016l-0.033-0.017    l-0.016-0.016l-0.016-0.031l-0.016-0.017l-0.032-0.016v-0.017c-0.063-0.047-0.112-0.079-0.159-0.111l0,0l-0.079-0.047l-0.16-0.08    l-0.079-0.048l0,0l-0.08-0.048l-0.317-0.191l-0.097-0.047l-0.079-0.049l-0.063-0.031h-0.016l-0.081-0.048l-0.079-0.048    l-0.08-0.048l-0.079-0.048l-0.16-0.096l-0.078-0.047l-0.079-0.049l0,0l-0.081-0.047l-0.079-0.049l-0.08-0.031l-0.079-0.048v-0.016    l-0.079-0.032l-0.081-0.047l-0.079-0.049l-0.159-0.096l-0.079-0.047l-0.081-0.049l-0.079-0.047l-0.016-0.016l-0.063-0.033    l-0.081-0.047l-0.079-0.048l-0.063-0.048l-0.033-0.016l-0.063-0.031l-0.063-0.049l-0.081-0.047l-0.079-0.049l-0.047-0.016    l-0.031-0.031l-0.081-0.049l-0.079-0.047l-0.079-0.049l-0.049-0.016l-0.032-0.031l-0.078-0.049l-0.081-0.047l-0.079-0.031    l-0.047-0.049l-0.032-0.016l-0.08-0.031l-0.063-0.049l-0.079-0.063l-0.081-0.033l0,0l-0.078-0.047l-0.081-0.064l-0.079-0.031    l-0.079-0.048v-0.017l-0.081-0.047l-0.223-0.144h-0.016l-0.223-0.144l-0.317-0.191l-0.081-0.047l-0.031-0.017l-0.128-0.096    l-0.096-0.048l-0.078-0.047l-0.034-0.017c-1.416-0.892-2.833-1.815-4.22-2.739l-0.047-0.016l-0.079-0.049l-0.065-0.047    l-0.031-0.031l0,0l0,0l-0.16-0.096l0,0l-0.157-0.111h-0.017l-0.479-0.319L262.203,266.146z M424.65,276.418    c0.527,1.066,1.02,2.102,1.497,3.169l0.032,0.048l0.033,0.064v0.016l0.461,0.987l0.063,0.144    c2.645,5.956,5.239,11.308,7.947,16.578c2.517,4.906,5.192,9.875,8.154,15.273l15.226-0.08c9.301-0.078,18.569-0.143,27.935-0.063    l-3.01-4.348c-3.599-5.24-7.056-10.273-11.944-15.385c-2.199-2.311-4.205-4.332-6.117-6.244    c-5.604-5.638-10.352-10.432-15.974-18.219c-6.928-9.604-11.308-13.027-19.717-19.59l-0.27-0.207    c-0.781,3.871-1.594,7.008-2.645,10.082c-1.242,3.631-2.803,7.119-4.97,11.546C422.564,272.324,423.647,274.363,424.65,276.418z     M424.412,285.305c-0.478-1.131-0.94-2.214-1.418-3.249l-0.016-0.032l-0.047-0.111l-0.048-0.096v-0.016l-0.049-0.111h-0.017    l-0.047-0.111l-0.016-0.032c-1.306-2.755-4.635-9.094-7.628-14.142c-2.008-3.393-3.759-6.116-4.38-6.467    c-6.849-3.87-13.952-8.775-20.721-13.474l-6.34-4.348c-2.961-2.071-5.365-4.014-7.627-6.132c-2.23-2.118-4.301-4.379-6.594-7.104    c-2.166-2.563-4.476-5.016-6.754-7.453c-3.041-3.249-6.067-6.481-8.439-9.508l-1.195-1.497    c-6.896-8.409-13.759-14.317-21.389-20.896l-4.713-4.076c-5.543,4.49-10.514,7.373-15.227,10.129    c-8.186,4.762-15.608,9.078-23.89,20.895c-2.183,3.09-4.013,5.415-5.59,7.406c-3.696,4.666-5.989,7.58-8.695,16.006    c0.032,0.238,0,0.494-0.064,0.732l-1.211,4.061c-0.986,3.393-2.292,7.805-3.774,12.438c-0.588,1.96-1.259,4.077-1.975,6.228    l0.095,0.064l3.648,2.309l0.063,0.047l0.097,0.049l0.031,0.031l0.031,0.016l0.239,0.16l0.047,0.016l0.049,0.031l0.063,0.049    l0.079,0.047l1.179,0.717l0.079,0.049l1.466,0.859l0.08,0.048l0.446,0.255l0.031,0.032l0.048,0.016l0.079,0.048l0.064,0.048    l0.079,0.031l0.016,0.017c1.848-5.209,3.552-7.374,6.133-10.639c1.051-1.322,2.276-2.867,3.822-5.081l0.078-0.111    c6.26-8.888,11.77-12.088,17.871-15.64c3.455-2.007,7.119-4.141,11.195-7.564c0.749-0.621,1.832-0.59,2.548,0.031l4.173,3.631    c5.51,4.746,10.464,9.015,15.528,15.194l0.908,1.131c1.639,2.087,3.693,4.269,5.749,6.466c1.72,1.848,3.456,3.695,4.889,5.383    c1.546,1.832,2.931,3.36,4.396,4.746c1.465,1.369,3.043,2.644,5.017,4.014l4.477,3.09c4.745,3.28,9.698,6.721,14.364,9.349    c1.02,0.589,2.66,2.946,4.332,5.765c2.373,4.014,5.08,9.254,5.814,10.862c1.051,2.405,2.181,4.794,3.344,7.183    c0.971,2.006,1.911,3.886,2.85,5.686l28.445-0.048l17.886-0.017C433.348,303.588,428.711,295.179,424.412,285.305z     M151.803,205.594c-0.668,2.484-0.493,4.984,0.351,7.215c0.668,1.799,1.783,3.408,3.232,4.697c3.185-3.184,6.322-5.573,9.476-7.66    l0.016-0.016l0.256-0.159l0.795-0.525l0.097-0.063l0.7-0.431l0.081-0.063l0.174-0.111l0.223-0.128l0.049-0.031l0.27-0.159    l0.063-0.048l0.191-0.111l0.207-0.128l0.065-0.031l0.271-0.176l0.047-0.031l0.223-0.128l0.175-0.111l0.079-0.048l0.272-0.159    l0.047-0.017l0.223-0.143l0.175-0.096l0.095-0.064l0.272-0.158l0.016-0.016l0.255-0.145l0.142-0.096l0.112-0.063l0.27-0.16h0.016    l0.256-0.158l0.142-0.08l0.128-0.08l0.271-0.143h0.016l0.272-0.16l0.126-0.079l0.144-0.079l0.254-0.16h0.016l0.207-0.127    l0.239-0.144l0.223-0.128l1.116-0.652c-0.59-1.465-1.481-2.819-2.597-3.949c-1.417-1.402-3.216-2.485-5.303-3.043    c-3.138-0.844-6.338-0.334-8.951,1.18C154.686,199.924,152.647,202.44,151.803,205.594z M253.443,255.428l1.307,0.907l0.063,0.032    l0.063,0.047l0.065,0.049l0.063,0.047l0.126,0.08l0.065,0.047l0.063,0.049l0.063,0.047l0.065,0.032l0.079,0.048l0.047,0.048    l0.081,0.048l0.047,0.031l0.079,0.064l0.047,0.031l0.081,0.049l0.047,0.047l0.079,0.048l0.049,0.032l0.079,0.063l0.047,0.032    l0.097,0.047l0.031,0.032l0.095,0.063l0.049,0.032l0.079,0.063l0.047,0.032l0.081,0.048l0.047,0.031l0.079,0.064l0.047,0.031    l0.081,0.064l0.047,0.016l0.079,0.063l0.049,0.032l0.095,0.063l0.031,0.032l0.097,0.047l0.032,0.032l0.095,0.063l0.031,0.032    l0.097,0.063l0.047,0.016l0.081,0.064l0.048,0.031l0.095,0.064l0.031,0.031l0.097,0.064l0.031,0.016l0.095,0.063l0.033,0.032    l0.095,0.063l0.032,0.016l0.096,0.079l0.048,0.017l0.095,0.063l0.033,0.031l0.095,0.064l0.032,0.016l0.096,0.08l0.302,0.191    l0.095,0.079l0.034,0.017l0.095,0.063l0.031,0.033l0.097,0.063l0.031,0.016l0.095,0.08l0.031,0.016l0.112,0.064l0.032,0.016    l0.097,0.08l0.031,0.016l0.095,0.064l0.031,0.031l0.097,0.064l0.032,0.016l0.11,0.079l0.033,0.017l0.095,0.063l0.558,0.383    l0.095,0.063l0.032,0.032l0.097,0.063l0.031,0.032l0.095,0.063l0.049,0.016l0.095,0.063l0.032,0.032l0.096,0.063l0.271,0.176    l0.031,0.031l0.097,0.064l0.032,0.016l0.095,0.063l0.047,0.032l0.081,0.063l0.047,0.032l0.079,0.047l0.05,0.032l0.095,0.063    l0.047,0.032l0.081,0.063l0.047,0.032l0.223,0.144l0.048,0.031l0.081,0.048l0.047,0.048l0.079,0.048l0.064,0.032    c0.572-1.673,1.131-3.361,1.673-5.033l0.016-0.048l0.048-0.144l0.016-0.096c0.445-1.434,0.828-2.771,1.179-3.965l3.169-10.941    l0.017-0.048l-4.794-3.186l-4.842-3.265c-3.011,2.628-5.973,5.064-8.951,7.533l-1.337,1.115c-1.307,1.082-2.5,2.134-3.632,3.169    l-1.623,1.513l0.016,0.016l0.11,0.096l0.112,0.08l0.653,0.541l0.11,0.096l0.112,0.08l0.223,0.175l0.016,0.017l0.875,0.668    l0.047,0.032h0.016l0.081,0.079l0.032,0.017l0.016,0.016l0.223,0.159l0.032,0.016l0.049,0.049l0.047,0.031l0,0l0.047,0.032    l0.063,0.048l0.016,0.016l0.034,0.016l0.047,0.032l0.047,0.032v0.016l0.047,0.031l0.063,0.032v0.017l0.049,0.031l0.047,0.031    l0.031,0.017l0.016,0.016l0.063,0.048l0.049,0.031l0.047,0.049l0.063,0.031l0.016,0.016l0.031,0.017l0.049,0.048l0.047,0.031    h0.016l0.047,0.032l0.047,0.048h0.018l0.047,0.031l0.047,0.049l0.032,0.016l0.032,0.016l0.049,0.048l0.047,0.032h0.016    l0.047,0.031l0.047,0.049l0.016,0.016l0.049,0.016l0.047,0.047l0.047,0.017l0.016,0.017l0.047,0.047l0.065,0.031L253.443,255.428z     M138.123,203.953c-1.051-0.271-1.657-1.354-1.386-2.389c0.27-1.051,1.353-1.672,2.388-1.386l5.654,1.513    c1.051,0.271,1.672,1.354,1.386,2.39c-0.271,1.051-1.337,1.672-2.388,1.386L138.123,203.953z M179.817,189.285    c0.764-0.764,1.99-0.764,2.755,0c0.765,0.765,0.748,2.008-0.016,2.756l-4.141,4.141c-0.765,0.765-1.99,0.765-2.755,0    s-0.75-2.007,0-2.771L179.817,189.285z M154.733,184.588c-0.286-1.053,0.335-2.119,1.369-2.405    c1.051-0.271,2.12,0.351,2.406,1.386l1.513,5.653c0.27,1.052-0.349,2.118-1.385,2.405c-1.051,0.27-2.12-0.352-2.39-1.386    L154.733,184.588z M142.199,216.296c-1.035,0.287-2.102-0.334-2.388-1.386c-0.272-1.035,0.349-2.117,1.384-2.389l3.457-0.924    c1.051-0.286,2.118,0.335,2.388,1.386c0.288,1.036-0.333,2.103-1.384,2.39L142.199,216.296z M167.061,186.658    c0.286-1.052,1.353-1.673,2.404-1.387c1.036,0.271,1.657,1.338,1.386,2.389l-0.923,3.457c-0.288,1.035-1.354,1.656-2.406,1.385    c-1.035-0.286-1.656-1.354-1.386-2.389L167.061,186.658z M146.07,194.303c-0.75-0.765-0.75-2.008,0-2.771    c0.763-0.765,2.005-0.765,2.771,0l2.532,2.532c0.765,0.765,0.765,2.007,0,2.771c-0.765,0.765-2.007,0.765-2.771,0L146.07,194.303z     M50.831,322.795c-0.621,0.732-1.339,1.576-2.086,2.404l1.067-0.031c6.21-0.191,12.359-0.366,18.713-0.366    c2.309,0,3.966,0.111,5.271,0.19c2.136,0.128,3.203,0.191,4.492-0.621l0.541-0.493c0.94-0.845,2.406-2.15,4.317-4.253    c5.239-5.781,8.631-9.428,11.785-12.311l0.207-0.207l0.049-0.048c4.411-4.061,8.042-6.339,12.071-8.695    c2.214-1.354,4.794-2.883,7.884-4.729l0.43-0.256c1.513-0.924,2.946-2.738,4.283-5.049c2.582-4.746,5.224-12.167,7.47-19.175    c0.461-1.561,0.892-3.01,1.274-4.3l3.169-10.926l0.016-0.048l-4.794-3.185l-4.842-3.281c-2.993,2.612-5.924,5.033-8.87,7.485    l-1.418,1.179c-3.567,2.979-6.291,5.542-8.775,8.266c-2.5,2.723-4.826,5.654-7.581,9.365c-3.52,4.682-6.673,8.504-10.002,12.184    c-3.345,3.693-6.831,7.182-11.036,11.148c-6.531,6.131-11.802,12.199-17.121,18.33C55.211,317.826,53.075,320.295,50.831,322.795z    " fill-rule="evenodd" clip-rule="evenodd"/></g></g><text x="0" y="527" fill="#000000" font-size="5px" font-weight="bold" font-family="'Helvetica Neue', Helvetica, Arial-Unicode, Arial, Sans-serif">Created by Flatart</text><text x="0" y="532" fill="#000000" font-size="5px" font-weight="bold" font-family="'Helvetica Neue', Helvetica, Arial-Unicode, Arial, Sans-serif">from the Noun Project</text></svg>